PathFileType	4	(X/Y/Z)	c:/Users/goper/Files/vsCode/490R/osim_files/C10/C10_SSWS_04.trc
DataRate	CameraRate	NumFrames	NumMarkers	Units                	OrigDataRate	OrigDataStartFrame	OrigNumFrames
250.00	250.00	8	36	mm	250.0	1377	2203
                Frame#	Time	LPSIS			LASIS			LTH1			LTH2			LTH3			LTH4			LLFE			LMFE			LSH1			LSH2			LSH3			LSH4			LLMAL			LMMAL			LCAL			LMTP5			LTOE			LMTP1			RPSIS			RASIS			RTH1			RTH2			RTH3			RTH4			RLFE			RMFE			RSH1			RSH2			RSH3			RSH4			RLMAL			RMMAL			RCAL			RMTP1			RTOE			RMTP5		
		X1	Y1	Z1	X2	Y2	Z2	X3	Y3	Z3	X4	Y4	Z4	X5	Y5	Z5	X6	Y6	Z6	X7	Y7	Z7	X8	Y8	Z8	X9	Y9	Z9	X10	Y10	Z10	X11	Y11	Z11	X12	Y12	Z12	X13	Y13	Z13	X14	Y14	Z14	X15	Y15	Z15	X16	Y16	Z16	X17	Y17	Z17	X18	Y18	Z18	X19	Y19	Z19	X20	Y20	Z20	X21	Y21	Z21	X22	Y22	Z22	X23	Y23	Z23	X24	Y24	Z24	X25	Y25	Z25	X26	Y26	Z26	X27	Y27	Z27	X28	Y28	Z28	X29	Y29	Z29	X30	Y30	Z30	X31	Y31	Z31	X32	Y32	Z32	X33	Y33	Z33	X34	Y34	Z34	X35	Y35	Z35	X36	Y36	Z36

1377	5.50400	-906.72333	1023.25958	342.66986	-1064.59998	1007.50549	473.99628	-1058.80261	777.66858	520.93719	-1077.89465	734.21332	519.28583	-1113.32874	797.76239	502.20123	-1124.26233	751.19617	500.97818	0.00000	0.00000	0.00000	-1184.11145	494.01920	346.32779	-1087.41943	450.79706	467.29535	-1066.98047	408.05615	471.19638	-1140.49976	418.54385	465.75079	-1112.12402	382.27310	469.16547	-951.33032	160.86981	442.44263	0.00000	0.00000	0.00000	-874.86798	132.30515	387.84998	-1019.90790	66.52251	477.15524	-1084.31665	64.31915	425.54279	-1049.39429	46.43861	374.61646	-912.06464	1028.54639	260.06924	-1069.20056	1007.69476	138.19836	-988.20514	743.33398	107.11105	-998.16180	699.78021	111.33134	-1049.01306	749.91827	103.48752	-1051.37244	705.68915	108.84396	-1025.67688	480.13672	183.37839	-1031.58826	480.74350	294.86292	-949.16034	390.90347	174.35727	-952.02539	346.92767	176.08855	-1012.12634	386.97006	182.84772	-1004.57416	344.55865	181.72437	-953.99945	85.53587	238.21547	-967.62390	98.31308	318.81659	-896.24103	42.85353	279.17392	-1088.34155	34.32830	316.38443	-1121.52759	49.61313	276.06540	-1073.11304	31.71429	211.89618
1378	5.50800	-911.17139	1022.68268	343.01871	-1069.25464	1007.48529	473.88507	-1063.99084	777.95636	521.28845	-1083.23950	734.61743	519.80408	-1118.35999	798.33893	502.55716	-1129.59985	751.86481	501.39529	0.00000	0.00000	0.00000	-1191.52332	495.35004	346.29465	-1095.94763	450.33072	467.46167	-1076.12671	407.47394	471.63828	-1149.79150	419.26932	465.80353	-1122.21448	382.29019	469.18576	-966.30115	157.38678	442.52344	0.00000	0.00000	0.00000	-890.94946	126.66151	387.52396	-1037.07629	64.55321	477.68201	-1101.85095	63.74016	426.42740	-1067.56958	44.97394	375.38513	-916.52112	1028.02002	260.42902	-1073.57483	1007.19568	138.08304	-991.83740	743.32416	107.07986	-1001.58521	699.69250	111.28914	-1052.68103	749.60852	103.58398	-1054.82214	705.38788	108.96522	-1027.81750	479.86426	183.54872	-1033.39124	480.37744	294.96552	-950.91101	390.93936	174.21640	-953.61646	346.95190	175.96614	-1013.85248	386.77701	182.97565	-1006.04456	344.37387	181.85860	-954.15857	85.57586	238.22752	-967.71173	98.29948	318.87445	-896.23810	42.87277	279.18588	-1088.35803	34.28767	316.43076	-1121.48840	49.64848	275.78854	-1073.12048	31.70700	211.91779
1379	5.51200	-915.65808	1021.96039	343.34845	-1073.99744	1007.43604	473.81958	-1069.22205	778.18701	521.60742	-1088.68848	735.00159	520.29095	-1123.34570	798.89752	502.81262	-1134.88342	752.43896	501.78772	0.00000	0.00000	0.00000	-1198.79382	496.58844	346.27911	-1104.41077	449.91086	467.88800	-1085.53308	406.37009	471.82791	-1159.03577	419.87143	465.84290	-1132.29529	382.31339	469.23380	-981.63055	153.71402	442.46609	0.00000	0.00000	0.00000	-907.17609	121.12501	387.15979	-1054.35999	62.66208	478.16815	-1118.71436	63.30131	426.42380	-1085.62061	43.36829	375.60187	-921.00140	1027.41748	260.83655	-1078.02026	1006.62128	137.99628	-995.54260	743.19958	107.00861	-1005.11786	699.56219	111.26177	-1056.39038	749.21906	103.71365	-1058.41223	705.03174	109.09422	-1029.88635	479.60269	183.70712	-1035.25684	479.98880	295.03308	-952.72345	390.94748	174.07300	-955.25665	346.96375	175.87885	-1015.53510	386.51736	183.13519	-1007.69482	344.19162	181.98918	-954.34180	85.61785	238.24307	-967.64136	98.51565	318.84113	-896.26532	42.88099	279.16898	-1088.42664	34.30345	316.59085	-1121.68921	49.64642	275.80399	-1073.12524	31.67856	211.91916
1380	5.51600	-920.11847	1021.30219	343.69617	-1078.56274	1007.29688	473.77441	-1074.44849	778.34259	521.98303	-1094.07556	735.31952	520.78162	-1128.44153	799.39954	503.10120	-1140.32654	752.98114	502.23621	0.00000	0.00000	0.00000	-1206.02844	497.75378	346.32346	-1113.00305	449.02499	468.03842	-1095.05444	405.14462	472.11966	-1168.31360	420.42825	465.89886	-1142.38391	382.28772	469.24902	-997.03723	150.09111	442.38348	0.00000	0.00000	0.00000	-923.58020	115.66367	386.83246	-1071.68018	60.81484	478.63116	-1136.21973	62.76454	427.12973	-1103.82141	41.97001	376.26270	-925.52502	1026.82202	261.30048	-1082.57043	1006.06140	137.99557	-999.20563	743.10901	106.92705	-1008.58417	699.39990	111.26295	-1060.16833	748.89673	103.84627	-1061.87549	704.64514	109.24216	-1032.03943	479.30304	183.80283	-1037.27490	479.68381	295.04144	-954.48663	390.97443	173.95244	-956.79083	347.00046	175.76924	-1017.35834	386.31650	183.21152	-1009.22290	344.00998	182.12680	-954.52765	85.68237	238.25116	-968.42584	98.14799	319.01746	-896.28522	42.91633	279.15259	-1088.41895	34.24271	316.52951	-1121.75513	49.58784	275.80701	-1073.26477	31.48485	212.06654
1381	5.52000	-924.71686	1020.50085	344.09894	-1083.24207	1007.14423	473.75418	-1079.70032	778.41693	522.33600	-1099.64624	735.43750	521.31262	-1133.44629	799.74738	503.40622	-1145.63794	753.48572	502.63083	0.00000	0.00000	0.00000	-1213.18652	498.78317	346.33371	-1121.72961	447.56207	467.62762	-1104.55078	403.79129	472.29852	-1177.56506	420.87299	465.95270	-1152.48669	382.12427	469.32935	-1012.54156	146.42133	442.39337	0.00000	0.00000	0.00000	-940.07495	110.32973	386.55750	-1089.11194	58.98706	479.03027	-1154.13940	62.60014	427.61899	-1122.16394	41.18854	376.57117	-930.03418	1026.21387	261.75864	-1087.28833	1005.42621	138.02596	-1002.95258	742.88171	106.88180	-1012.15704	699.18042	111.26902	-1063.87842	748.42999	103.96539	-1065.50378	704.25159	109.42852	-1034.15015	478.99686	183.93933	-1039.30139	479.27145	295.05191	-956.26111	390.98615	173.84384	-958.37360	346.98477	175.67143	-1018.97656	386.04370	183.37178	-1010.71619	343.79233	182.21318	-954.71124	85.71592	238.25162	-968.57739	98.10552	319.08963	-896.32819	42.89502	279.17712	-1088.50818	34.22797	316.59323	-1121.80212	49.49501	275.82040	-1073.13538	31.65014	211.89111
1382	5.52400	-929.33685	1019.72583	344.54114	-1087.87109	1006.95929	473.76624	-1084.92090	778.40851	522.66553	-1105.72070	735.33417	521.67438	-1138.40063	800.10120	503.76730	-1150.89819	753.87427	502.99854	0.00000	0.00000	0.00000	-1220.31812	499.80109	346.40170	-1129.89014	447.00363	468.21133	-1114.06091	402.33386	472.57101	-1186.59119	421.22928	466.05069	-1162.49976	381.92535	469.38998	-1028.01013	142.85281	442.48688	0.00000	0.00000	0.00000	-956.82550	105.18671	386.18939	-1106.56921	57.18176	479.31952	-1171.64734	62.18487	428.13068	-1140.44971	40.05608	377.01984	-934.59814	1025.61487	262.26736	-1092.08557	1004.83746	138.09221	-1006.71686	742.73090	106.86372	-1015.71057	698.99274	111.31552	-1067.66772	748.06232	104.09099	-1069.12268	703.83643	109.61880	-1036.21472	478.72296	184.01228	-1041.36584	478.96136	295.09256	-958.01544	391.01248	173.75133	-959.98425	347.03647	175.62184	-1020.79547	385.83603	183.46030	-1012.28229	343.62000	182.29556	-954.92548	85.76939	238.27902	-968.72931	98.11530	319.15262	-896.38092	42.87001	279.15915	-1088.49280	34.16291	316.61703	-1121.89355	49.39683	275.81903	-1073.27197	31.43036	212.05347
1383	5.52800	-933.90668	1019.00995	344.94751	-1092.43530	1006.65308	473.78595	-1090.18018	778.35638	522.98846	-1110.93372	735.44690	522.21100	-1143.41907	800.36993	504.01471	-1156.22266	754.24707	503.43393	0.00000	0.00000	0.00000	-1227.37329	500.67236	346.40555	-1138.12598	446.09628	468.74356	-1123.48621	400.80161	472.83945	-1195.42273	421.85962	466.80740	-1172.51709	381.65079	469.38782	-1043.96350	139.35933	442.38470	0.00000	0.00000	0.00000	-973.46191	100.01043	386.48032	-1124.12146	55.49469	479.55786	-1189.15601	61.83805	428.54782	-1158.52393	39.00009	377.47983	-939.10516	1025.07520	262.67737	-1096.04260	1004.15497	137.96323	-1010.49579	742.50586	106.85807	-1019.37231	698.74445	111.36495	-1071.47937	747.63879	104.22983	-1072.69202	703.38916	109.82211	-1038.29321	478.40906	184.07524	-1043.30322	478.57407	295.08450	-959.78723	391.05750	173.70679	-961.46576	347.08054	175.60329	-1022.39807	385.58310	183.57449	-1013.77039	343.37286	182.45329	-955.07416	85.83524	238.27307	-968.63318	98.18877	319.25955	-896.38995	42.90868	279.13120	-1088.49585	34.18592	316.61313	-1121.93433	49.33232	275.79828	-1073.27795	31.41722	212.02705
1384	5.53200	-938.48950	1018.32709	345.34674	-1096.95654	1006.30396	473.87567	-1095.33569	778.18567	523.30627	-1117.18152	736.28247	522.29272	-1148.39795	800.50012	504.32455	-1161.56384	754.52399	503.75162	0.00000	0.00000	0.00000	-1234.37354	501.50385	346.45554	-1146.59399	444.69611	468.90561	-1132.86426	399.26190	473.17139	-1204.28931	422.00983	466.49133	-1182.36572	381.37683	469.50079	-1059.76123	136.02174	442.43695	0.00000	0.00000	0.00000	-990.23969	95.15647	386.25143	-1141.69836	53.88918	479.78644	-1206.63684	61.60365	428.84387	-1176.60815	38.12197	377.74698	-943.70526	1024.55554	263.13065	-1100.50244	1003.53931	137.91414	-1014.35809	742.30524	106.91405	-1022.96515	698.52533	111.45139	-1075.26453	747.18304	104.39752	-1076.40710	702.97412	110.01608	-1040.32874	478.09866	184.16902	-1045.33081	478.21954	295.10635	-961.78302	391.14758	173.75977	-962.96326	347.13083	175.59360	-1024.10681	385.37946	183.66460	-1015.25348	343.24768	182.49467	-955.27496	85.89703	238.31876	-969.02905	97.99087	319.29532	-896.39197	42.90452	279.16391	-1088.49915	34.16165	316.63110	-1121.99377	49.25017	275.80255	-1073.30298	31.42431	212.03229
